<?xml version="1.0" encoding="UTF-8" standalone="no"?>
<!-- Created with Inkscape (http://www.inkscape.org/) -->
<svg
   xmlns:svg="http://www.w3.org/2000/svg"
   xmlns="http://www.w3.org/2000/svg"
   version="1.0"
   width="129.53809"
   height="22.594683"
   id="svg2"
   xml:space="preserve"><defs
     id="defs5"><clipPath
       id="clipPath17"><path
         d="M 80.134,942.744 L 761.866,942.744 L 761.866,248.255 L 80.134,248.255 L 80.134,942.744 z"
         id="path19" /></clipPath><clipPath
       id="clipPath29"><path
         d="M 80.134,942.744 L 81.2129,942.744 L 81.2129,248.255 L 80.134,248.255 L 80.134,942.744 z"
         id="path31" /></clipPath><clipPath
       id="clipPath43"><path
         d="M 80.134,942.744 L 761.866,942.744 L 761.866,248.255 L 80.134,248.255 L 80.134,942.744 z"
         id="path45" /></clipPath><clipPath
       id="clipPath55"><path
         d="M 81.213,942.744 L 761.866,942.744 L 761.866,248.255 L 81.213,248.255 L 81.213,942.744 z"
         id="path57" /></clipPath><clipPath
       id="clipPath85"><path
         d="M 741.006,922.936 L 581.012,922.936 L 581.012,885.015 L 741.006,885.015 L 741.006,922.936 z"
         id="path87" /></clipPath><clipPath
       id="clipPath135"><path
         d="M 80.134,248.256 L 761.866,248.256 L 761.866,942.745 L 80.134,942.745 L 80.134,248.256 z"
         id="path137" /></clipPath></defs><g
     transform="matrix(1.25,0,0,-1.25,-726.26503,1153.67)"
     id="g11"><path
       d="M 608.9767,907.70836 C 608.99689,906.80653 609.15168,906.50706 609.3805,906.42561 C 609.57567,906.35564 609.79776,906.34555 609.97946,906.34555 C 610.10733,906.34555 610.17463,906.32198 610.17463,906.25199 C 610.17463,906.15912 610.07368,906.13691 609.91217,906.13691 C 609.15841,906.13691 608.70078,906.17123 608.47868,906.17123 C 608.37773,906.17123 607.83262,906.13691 607.23365,906.13691 C 607.07887,906.13691 606.97791,906.14834 606.97791,906.25199 C 606.97791,906.32198 607.04521,906.34555 607.15962,906.34555 C 607.31441,906.34555 607.5163,906.35564 607.68456,906.40207 C 607.98067,906.49426 608.02778,906.83009 608.04124,907.83554 L 608.14219,914.67922 C 608.14219,914.90938 608.17584,915.07224 608.29698,915.07224 C 608.41812,915.07224 608.52579,914.92217 608.72097,914.71355 C 608.8623,914.56345 610.6188,912.67908 612.30802,911.00333 C 613.0887,910.21727 614.65005,908.55229 614.8452,908.36721 L 614.90578,908.36721 L 614.79137,913.55666 C 614.7779,914.26263 614.67695,914.48271 614.3943,914.59778 C 614.22606,914.66644 613.95012,914.66644 613.7886,914.66644 C 613.64728,914.66644 613.60016,914.70209 613.60016,914.77141 C 613.60016,914.86362 613.72804,914.87438 613.90302,914.87438 C 614.50199,914.87438 615.05383,914.84005 615.29612,914.84005 C 615.42398,914.84005 615.86816,914.87438 616.43348,914.87438 C 616.58153,914.87438 616.69595,914.86362 616.69595,914.77141 C 616.69595,914.70209 616.62864,914.66644 616.48731,914.66644 C 616.3729,914.66644 616.28542,914.66644 616.14409,914.6321 C 615.82106,914.53991 615.72684,914.29695 615.71336,913.65088 L 615.5855,906.35564 C 615.5855,906.10258 615.54512,905.9976 615.43744,905.9976 C 615.30958,905.9976 615.17497,906.12479 615.0471,906.25199 C 614.31355,906.94719 612.83969,908.45942 611.63503,909.65061 C 610.37653,910.89968 609.09111,912.34393 608.88248,912.56332 L 608.84883,912.56332 L 608.9767,907.70836"
       id="path67"
       style="fill:#00829c;fill-opacity:1;fill-rule:nonzero;stroke:none" /><path
       d="M 626.72355,910.28591 C 626.72355,912.87628 625.2295,914.48271 623.33165,914.48271 C 622.00586,914.48271 620.49162,913.74308 620.49162,910.86401 C 620.49162,908.45942 621.81742,906.55349 624.03831,906.55349 C 624.8459,906.55349 626.72355,906.94719 626.72355,910.28591 z M 618.89663,910.50666 C 618.89663,912.48324 620.20224,915.03725 623.66816,915.03725 C 626.54857,915.03725 628.33873,913.36082 628.33873,910.71328 C 628.33873,908.06705 626.488,905.97538 623.55375,905.97538 C 620.23589,905.97538 618.89663,908.45942 618.89663,910.50666"
       id="path69"
       style="fill:#00829c;fill-opacity:1;fill-rule:nonzero;stroke:none" /><path
       d="M 630.7817,913.74308 C 630.5125,914.3784 630.31733,914.50491 629.90007,914.62135 C 629.72509,914.66644 629.54339,914.66644 629.44918,914.66644 C 629.34822,914.66644 629.31458,914.70209 629.31458,914.77141 C 629.31458,914.86362 629.43571,914.87438 629.61069,914.87438 C 630.22311,914.87438 630.88264,914.84005 631.28645,914.84005 C 631.57584,914.84005 632.13442,914.87438 632.71319,914.87438 C 632.84779,914.87438 632.97566,914.85151 632.97566,914.77141 C 632.97566,914.68999 632.90835,914.66644 632.80067,914.66644 C 632.61897,914.66644 632.44399,914.65566 632.34977,914.58702 C 632.26902,914.52847 632.23537,914.44771 632.23537,914.34339 C 632.23537,914.19399 632.34304,913.87029 632.50456,913.4537 L 634.4899,908.20434 L 634.53701,908.20434 C 635.03501,909.47697 636.53578,913.1993 636.81172,913.96181 C 636.87229,914.11256 636.91941,914.28553 636.91941,914.38983 C 636.91941,914.48271 636.87229,914.57559 636.76461,914.60989 C 636.63,914.65566 636.45504,914.66644 636.30698,914.66644 C 636.19929,914.66644 636.10507,914.67922 636.10507,914.76065 C 636.10507,914.85151 636.21276,914.87438 636.43485,914.87438 C 637.00688,914.87438 637.49819,914.84005 637.64624,914.84005 C 637.8414,914.84005 638.38653,914.87438 638.72975,914.87438 C 638.88454,914.87438 638.97203,914.85151 638.97203,914.77141 C 638.97203,914.68999 638.90474,914.66644 638.79032,914.66644 C 638.67591,914.66644 638.43364,914.66644 638.22501,914.52847 C 638.07022,914.42415 637.90197,914.2283 637.58567,913.4887 C 637.13476,912.4018 636.82519,911.77794 636.19929,910.35456 C 635.459,908.66737 634.92061,907.40819 634.66488,906.83009 C 634.36202,906.15912 634.29473,905.97538 634.13321,905.97538 C 633.98515,905.97538 633.91113,906.13691 633.69576,906.68001 L 630.7817,913.74308"
       id="path71"
       style="fill:#00829c;fill-opacity:1;fill-rule:nonzero;stroke:none" /><path
       d="M 643.83105,909.73205 C 643.89163,909.73205 643.90508,909.76636 643.89163,909.80069 L 642.84848,912.65553 C 642.835,912.70264 642.82829,912.76051 642.79464,912.76051 C 642.76099,912.76051 642.73407,912.70264 642.72061,912.65553 L 641.65728,909.81212 C 641.65054,909.76636 641.65728,909.73205 641.70438,909.73205 L 643.83105,909.73205 z M 641.47557,909.15326 C 641.415,909.15326 641.39481,909.12971 641.37462,909.06106 L 640.74874,907.40819 C 640.62759,907.12016 640.57376,906.84221 640.57376,906.70222 C 640.57376,906.49426 640.6747,906.34555 641.03812,906.34555 L 641.2131,906.34555 C 641.3477,906.34555 641.38136,906.32198 641.38136,906.25199 C 641.38136,906.15912 641.31405,906.13691 641.18618,906.13691 C 640.81603,906.13691 640.31803,906.17123 639.96133,906.17123 C 639.83347,906.17123 639.19411,906.13691 638.59516,906.13691 C 638.4471,906.13691 638.3798,906.15912 638.3798,906.25199 C 638.3798,906.32198 638.42691,906.34555 638.5144,906.34555 C 638.62208,906.34555 638.78359,906.35564 638.87108,906.36707 C 639.40948,906.43774 639.62483,906.83009 639.85365,907.40819 L 642.76099,914.66644 C 642.89559,915.00226 642.96961,915.13012 643.08403,915.13012 C 643.18498,915.13012 643.25227,915.02513 643.37341,914.76065 C 643.64935,914.124 645.50007,909.40631 646.24037,907.65046 C 646.67781,906.61137 647.01431,906.44918 647.25659,906.3913 C 647.43156,906.35564 647.59981,906.34555 647.74115,906.34555 C 647.83536,906.34555 647.8892,906.33274 647.8892,906.25199 C 647.8892,906.15912 647.78825,906.13691 647.35754,906.13691 C 646.94029,906.13691 646.09904,906.13691 645.1703,906.15912 C 644.96841,906.17123 644.82708,906.17123 644.82708,906.25199 C 644.82708,906.32198 644.87419,906.34555 644.9886,906.35564 C 645.06935,906.37986 645.15012,906.48351 645.08954,906.62214 L 644.16755,909.07117 C 644.14736,909.12971 644.11371,909.15326 644.05314,909.15326 L 641.47557,909.15326"
       id="path73"
       style="fill:#00829c;fill-opacity:1;fill-rule:nonzero;stroke:none" /><path
       d="M 651.98099,910.61029 C 651.98099,910.48311 652.00119,910.43668 652.08195,910.40167 C 652.32423,910.32024 652.67419,910.28591 652.96358,910.28591 C 653.42121,910.28591 653.576,910.33369 653.78462,910.48311 C 654.12785,910.73682 654.46435,911.26848 654.46435,912.21674 C 654.46435,913.85883 653.38083,914.33127 652.69437,914.33127 C 652.40499,914.33127 652.19636,914.32118 652.08195,914.28553 C 652.00119,914.26263 651.98099,914.2162 651.98099,914.124 L 651.98099,910.61029 z M 650.61482,911.52422 C 650.61482,913.28006 650.61482,913.60378 650.59464,913.97392 C 650.56771,914.3656 650.4735,914.55203 650.09663,914.6321 C 650.00241,914.65566 649.80723,914.66644 649.64571,914.66644 C 649.51785,914.66644 649.45055,914.68999 649.45055,914.77141 C 649.45055,914.85151 649.53131,914.87438 649.69954,914.87438 C 650.31198,914.87438 651.04554,914.84005 651.28782,914.84005 C 651.67816,914.84005 652.55305,914.87438 652.91647,914.87438 C 653.64329,914.87438 654.41724,914.80574 655.04312,914.3784 C 655.36615,914.15832 655.83053,913.56945 655.83053,912.79416 C 655.83053,911.9388 655.46711,911.15273 654.30283,910.20582 C 655.33251,908.91031 656.12664,907.88198 656.8131,907.16525 C 657.45917,906.49426 657.93026,906.41351 658.10524,906.37986 C 658.23311,906.35564 658.33406,906.34555 658.42828,906.34555 C 658.5225,906.34555 658.56961,906.30987 658.56961,906.25199 C 658.56961,906.15912 658.48885,906.13691 658.34752,906.13691 L 657.25054,906.13691 C 656.60447,906.13691 656.31508,906.19343 656.01224,906.35564 C 655.51421,906.62214 655.07678,907.16525 654.4307,908.05561 C 653.96633,908.6916 653.43467,909.47697 653.28661,909.65061 C 653.22604,909.71993 653.15874,909.73205 653.07798,909.73205 L 652.0685,909.75425 C 652.01466,909.75425 651.98099,909.73205 651.98099,909.6634 L 651.98099,909.50053 C 651.98099,908.42509 651.98099,907.5125 652.03484,907.02594 C 652.0685,906.69079 652.14251,906.43774 652.48575,906.3913 C 652.66072,906.36707 652.91647,906.34555 653.05107,906.34555 C 653.14529,906.34555 653.19239,906.30987 653.19239,906.25199 C 653.19239,906.17123 653.11163,906.13691 652.96358,906.13691 C 652.29058,906.13691 651.43588,906.17123 651.2609,906.17123 C 651.04554,906.17123 650.31198,906.13691 649.85435,906.13691 C 649.69954,906.13691 649.6188,906.17123 649.6188,906.25199 C 649.6188,906.30987 649.66591,906.34555 649.80723,906.34555 C 649.9822,906.34555 650.11681,906.36707 650.22449,906.3913 C 650.45331,906.43774 650.51388,906.69079 650.55426,907.02594 C 650.61482,907.5125 650.61482,908.42509 650.61482,909.48976 L 650.61482,911.52422"
       id="path75"
       style="fill:#00829c;fill-opacity:1;fill-rule:nonzero;stroke:none" /><path
       d="M 662.27108,914.2283 L 660.54821,914.18187 C 659.87522,914.15832 659.59929,914.10045 659.42431,913.84672 C 659.30991,913.67309 659.24933,913.53513 659.22915,913.44293 C 659.20896,913.34939 659.16858,913.30295 659.10127,913.30295 C 659.02052,913.30295 659.00033,913.36082 659.00033,913.4887 C 659.00033,913.67309 659.21569,914.72431 659.24261,914.81718 C 659.27625,914.96726 659.30991,915.03725 659.3772,915.03725 C 659.47142,915.03725 659.58583,914.92217 659.87522,914.89795 C 660.21171,914.86362 660.64916,914.84005 661.03277,914.84005 L 665.60912,914.84005 C 666.34942,914.84005 666.62535,914.95649 666.71957,914.95649 C 666.80032,914.95649 666.81379,914.88717 666.81379,914.71355 C 666.81379,914.47058 666.78013,913.67309 666.78013,913.37226 C 666.76667,913.25652 666.74648,913.18787 666.67245,913.18787 C 666.57823,913.18787 666.55804,913.24506 666.54459,913.4187 L 666.53785,913.54589 C 666.51093,913.84672 666.20135,914.16976 665.17168,914.19399 L 663.71128,914.2283 L 663.71128,909.48976 C 663.71128,908.42509 663.71128,907.5125 663.77185,907.01516 C 663.8055,906.69079 663.87952,906.43774 664.22276,906.3913 C 664.38428,906.36707 664.64001,906.34555 664.81499,906.34555 C 664.93614,906.34555 664.9967,906.30987 664.9967,906.25199 C 664.9967,906.17123 664.90248,906.13691 664.77461,906.13691 C 664.01412,906.13691 663.28729,906.17123 662.96426,906.17123 C 662.69506,906.17123 661.96823,906.13691 661.50386,906.13691 C 661.3558,906.13691 661.27504,906.17123 661.27504,906.25199 C 661.27504,906.30987 661.32216,906.34555 661.46348,906.34555 C 661.63173,906.34555 661.77306,906.36707 661.87401,906.3913 C 662.10956,906.43774 662.17686,906.69079 662.21051,907.02594 C 662.27108,907.5125 662.27108,908.42509 662.27108,909.48976 L 662.27108,914.2283"
       id="path77"
       style="fill:#00829c;fill-opacity:1;fill-rule:nonzero;stroke:none" /><path
       d="M 670.62966,911.52422 C 670.62966,913.28006 670.62966,913.60378 670.60274,913.97392 C 670.58255,914.3656 670.46814,914.56345 670.21241,914.62135 C 670.08453,914.65566 669.92975,914.66644 669.79514,914.66644 C 669.68073,914.66644 669.6067,914.68999 669.6067,914.78219 C 669.6067,914.85151 669.70092,914.87438 669.88936,914.87438 C 670.32681,914.87438 671.05364,914.84005 671.39014,914.84005 C 671.67952,914.84005 672.35925,914.87438 672.7967,914.87438 C 672.95148,914.87438 673.0457,914.85151 673.0457,914.78219 C 673.0457,914.68999 672.97167,914.66644 672.85726,914.66644 C 672.74286,914.66644 672.64864,914.65566 672.51404,914.6321 C 672.19773,914.57559 672.10351,914.3784 672.08332,913.97392 C 672.06313,913.60378 672.06313,913.28006 672.06313,911.52422 L 672.06313,909.48976 C 672.06313,908.36721 672.06313,907.4553 672.10351,906.9573 C 672.1439,906.64502 672.22465,906.43774 672.56788,906.3913 C 672.72939,906.36707 672.98514,906.34555 673.16011,906.34555 C 673.28125,906.34555 673.34183,906.30987 673.34183,906.25199 C 673.34183,906.17123 673.25433,906.13691 673.11973,906.13691 C 672.35925,906.13691 671.63241,906.17123 671.32284,906.17123 C 671.05364,906.17123 670.32681,906.13691 669.86245,906.13691 C 669.71439,906.13691 669.63363,906.17123 669.63363,906.25199 C 669.63363,906.30987 669.68073,906.34555 669.81533,906.34555 C 669.99031,906.34555 670.13164,906.36707 670.23259,906.3913 C 670.46814,906.43774 670.53544,906.6329 670.5691,906.96806 C 670.62966,907.4553 670.62966,908.36721 670.62966,909.48976 L 670.62966,911.52422"
       id="path79"
       style="fill:#00829c;fill-opacity:1;fill-rule:nonzero;stroke:none" /><g
       transform="matrix(0.6729938,0,0,0.6729938,193.1837,301.16806)"
       id="g81"
       style="fill:#ff0000"><g
         clip-path="url(#clipPath85)"
         id="g83"
         style="fill:#ff0000"><path
           d="M 718.356,899.129 C 718.086,899.247 718.036,899.333 718.036,899.711 C 718.036,900.655 718.106,901.687 718.116,901.963 C 718.136,902.22 718.186,902.409 718.326,902.409 C 718.476,902.409 718.496,902.253 718.496,902.117 C 718.496,901.893 718.566,901.533 718.646,901.24 C 719.026,899.97 720.046,899.505 721.106,899.505 C 722.656,899.505 723.406,900.553 723.406,901.464 C 723.406,902.306 723.146,903.113 721.726,904.211 L 720.936,904.83 C 719.046,906.308 718.396,907.509 718.396,908.9 C 718.396,910.79 719.976,912.147 722.356,912.147 C 723.476,912.147 724.196,911.976 724.646,911.854 C 724.796,911.82 724.886,911.768 724.886,911.649 C 724.886,911.426 724.816,910.927 724.816,909.588 C 724.816,909.209 724.766,909.072 724.626,909.072 C 724.506,909.072 724.456,909.176 724.456,909.382 C 724.456,909.536 724.366,910.068 724.006,910.515 C 723.756,910.841 723.256,911.356 722.136,911.356 C 720.866,911.356 720.096,910.618 720.096,909.588 C 720.096,908.799 720.486,908.197 721.916,907.113 L 722.396,906.754 C 724.456,905.158 725.216,904.006 725.216,902.373 C 725.216,901.379 724.836,900.192 723.596,899.386 C 722.736,898.834 721.776,898.682 720.866,898.682 C 719.866,898.682 719.096,898.802 718.356,899.129"
           id="path89"
           style="fill:#00829c;fill-opacity:1;fill-rule:nonzero;stroke:none" /><path
           d="M 591.486,897.784 C 581.956,898.512 579.066,903.994 582.256,910.162 C 583.976,913.484 586.596,917.059 583.466,920.362 C 583.386,920.47 583.456,920.539 583.586,920.48 C 590.716,917.638 587.006,911.901 585.786,909.524 C 583.386,904.839 584.926,899.148 591.486,897.924 C 591.636,897.894 591.626,897.772 591.486,897.784"
           id="path91"
           style="fill:#e74b1c;fill-opacity:1;fill-rule:nonzero;stroke:none" /></g></g><path
       d="M 592.11148,908.88744 L 593.195,922.29549 L 590.65109,922.29818 L 592.01726,908.88744 C 592.02399,908.80196 592.10475,908.80466 592.11148,908.88744"
       id="path93"
       style="fill:#00829c;fill-opacity:1;fill-rule:nonzero;stroke:none" /><path
       d="M 595.01208,915.63688 C 596.59362,914.39117 599.17792,907.46405 592.87196,905.46795 C 592.77101,905.4417 592.77774,905.36498 592.87196,905.37373 C 602.90629,906.6282 599.46058,913.82385 595.09957,915.72169 C 594.97844,915.77754 594.9246,915.70486 595.01208,915.63688"
       id="path95"
       style="fill:#f9b219;fill-opacity:1;fill-rule:nonzero;stroke:none" /></g></svg>