<svg xmlns="http://www.w3.org/2000/svg" xmlns:xlink="http://www.w3.org/1999/xlink" version="1.1" id="Layer_1" x="0px" y="0px" style="enable-background:new 0 0 1300 800;" xml:space="preserve" viewBox="136.66 272.67 1026.68 254.67">
<style type="text/css">
	.st0{fill:#2B143E;}
	.st1{fill:url(#SVGID_1_);}
	.st2{fill:url(#SVGID_2_);}
	.st3{fill:url(#SVGID_3_);}
	.st4{fill:url(#SVGID_4_);}
	.st5{fill:url(#SVGID_5_);}
	.st6{fill:url(#SVGID_6_);}
</style>
<g>
	<g>
		<linearGradient id="SVGID_1_" gradientUnits="userSpaceOnUse" x1="136.6613" y1="407.1422" x2="483.6469" y2="407.1422">
			<stop offset="0" style="stop-color:#532677"/>
			<stop offset="0.2058" style="stop-color:#4D236F"/>
			<stop offset="0.5325" style="stop-color:#3C1C58"/>
			<stop offset="0.9373" style="stop-color:#221032"/>
			<stop offset="1" style="stop-color:#1D0E2C"/>
		</linearGradient>
		<path class="st1" d="M442.18,443.5c2.24-1.87,5.14-3.24,7.53-4.93c5.69-4.02,11.13-8.45,16.09-13.35    c10.83-10.7,21.5-25.97,16.63-41.94c-2.83-9.31-9.44-16.81-18.35-20.28c-6.53-2.54-13.47-4-20.39-4.96    c-12.23-1.71-24.66-1.82-36.97-1.14c-19.09,1.05-38.05,4.05-56.73,8.01c-29.95,6.35-59.99,14.22-88.42,25.7    c-14.93,6.03-29.66,12.6-44.19,19.52c-21.4,10.19-42.58,21.19-62.37,34.27c-3.3,2.18-6.55,4.42-9.75,6.75    c-2.86,2.09-5.58,4.82-8.6,6.64c0,0,105.15-63.48,221.01-85.7C473.53,349.86,500.11,395.09,442.18,443.5z"/>
		<linearGradient id="SVGID_2_" gradientUnits="userSpaceOnUse" x1="244.585" y1="366.2184" x2="428.316" y2="366.2184">
			<stop offset="0" style="stop-color:#532677"/>
			<stop offset="0.2058" style="stop-color:#4D236F"/>
			<stop offset="0.5325" style="stop-color:#3C1C58"/>
			<stop offset="0.9373" style="stop-color:#221032"/>
			<stop offset="1" style="stop-color:#1D0E2C"/>
		</linearGradient>
		<path class="st2" d="M427,336.57c-0.26-2.17,0.71-5.09,0.9-7.27c0.5-5.78,0.57-11.62,0.11-17.41c-0.7-8.67-2.62-17.53-7.02-25.12    c-3.06-5.29-8.08-11.24-14.19-12.99c-8.8-2.52-18.69-0.39-26.95,2.95c-14.59,5.9-26.7,16.58-37.54,27.74    c-7.4,7.62-14.47,15.57-21.27,23.74c-9.93,11.93-19.27,24.34-27.99,37.19c-10.66,15.71-20.37,32.06-28.94,49    c-3.65,7.22-7.09,14.54-10.3,21.96c-1.65,3.82-3.24,7.66-4.77,11.53c-1.52,3.86-2.6,8.19-4.46,11.88    c1.97-3.92,4.05-7.79,6.14-11.66c5.39-9.96,11-19.81,16.8-29.54c7.95-13.34,16.27-26.47,25.03-39.3    c9.64-14.11,19.81-27.87,30.82-40.94c12.83-15.22,27.12-29.12,42.98-41.15c3.56-2.7,7.25-5.14,11.29-7.08    c6.25-2.99,13.36-4.95,20.32-3.81c9.29,1.52,15.89,8.58,20.05,16.63C423.36,313.27,425.62,325.12,427,336.57z"/>
		<radialGradient id="SVGID_3_" cx="232.8305" cy="492.6511" r="18.1526" gradientUnits="userSpaceOnUse">
			<stop offset="0" style="stop-color:#532677"/>
			<stop offset="0.1077" style="stop-color:#4C236E"/>
			<stop offset="0.7031" style="stop-color:#2A143E"/>
			<stop offset="1" style="stop-color:#1D0E2C"/>
		</radialGradient>
		<circle class="st3" cx="232.83" cy="492.65" r="18.15"/>
	</g>
	<g>
		<g>
			<path class="st0" d="M421.28,508.84v18.35h-79.42l-0.15,0.15h-23.2l0.15-0.15l14.09-18.35l25.25-32.74l11.6-14.97l14.09-18.2     h-65.33v-18.35h79.42h23.05l-14.24,18.35l-25.54,33.18l-11.6,14.97l-13.8,17.76H421.28z"/>
			<path class="st0" d="M540.48,527.33h-20.55l-9.4-18.35l-22.46-44.04l-22.46,44.04l-9.4,18.35h-20.55l9.4-18.35l43.01-84.41     l43.01,84.41L540.48,527.33z"/>
			<path class="st0" d="M612.99,465.82l44.48,61.51h-22.61l-35.53-49.03l-25.98,23.64v25.4h-18.35V424.57h18.35v52.56l15.12-13.8     l13.65-12.48l28.63-26.28h27.16L612.99,465.82z"/>
			<path class="st0" d="M758.18,475.95c0,28.33-23.05,51.38-51.38,51.38s-51.38-23.05-51.38-51.38c0-28.33,23.05-51.38,51.38-51.38     S758.18,447.62,758.18,475.95z M739.83,475.95c0-18.2-14.83-33.03-33.03-33.03s-33.03,14.83-33.03,33.03     c0,18.2,14.83,33.03,33.03,33.03S739.83,494.15,739.83,475.95z"/>
			<path class="st0" d="M826.29,424.72c28.33,0,51.38,22.9,51.38,51.23c0,12.63-4.55,24.22-12.18,33.18     c-0.88,1.03-1.91,2.05-2.94,3.08c-9.25,9.4-22.02,15.12-36.11,15.12h-51.38V424.57L826.29,424.72z M793.26,509.13h33.03     c18.2,0,33.03-14.83,33.03-33.03c0-18.2-14.83-33.03-33.03-33.03h-33.03V509.13z"/>
			<path class="st0" d="M898.37,527.33V424.57h18.35v102.76H898.37z"/>
			<path class="st0" d="M1040.03,424.57v51.38c0,28.33-23.05,51.38-51.38,51.38c-28.33,0-51.38-23.05-51.38-51.38v-51.38h18.35     v51.38c0,18.2,14.83,33.03,33.03,33.03c18.2,0,33.03-14.83,33.03-33.03v-51.38H1040.03z"/>
			<path class="st0" d="M1163.34,424.57v102.76h-18.35v-65.47l-18.06,13.8l-14.97,11.6l-14.97-11.6l-18.06-13.8v65.47h-18.35V424.57     l18.35,14.09l33.03,25.4l33.03-25.4L1163.34,424.57z"/>
		</g>
	</g>
</g>
</svg>