<?xml version="1.0" encoding="UTF-8" standalone="no"?>
<!-- Created with Inkscape (http://www.inkscape.org/) -->
<svg
   xmlns:svg="http://www.w3.org/2000/svg"
   xmlns="http://www.w3.org/2000/svg"
   version="1.0"
   width="579pt"
   height="579pt"
   viewBox="0 0 579 579">
  <path
     d="M 25.301165,289.67172 289.32987,553.70044 553.40261,289.6277 C 465.35022,201.6757 377.47182,113.54942 289.3739,25.643024 L 25.301165,289.67172 z"
     style="fill:#ffffff;stroke:none" />
  <path
     d="M 147.65941,148.01233 6,289.67173 147.66886,431.34059 289.32827,573 431.01602,431.31224 572.70378,289.62449 431.06327,147.98398 C 353.16571,70.086424 289.40386,6.34347 289.37551,6.34347 c -0.0284,0 -63.79965,63.752403 -141.7161,141.66886 z M 408.62189,170.42535 527.82103,289.62449 408.57465,408.87087 289.31882,528.1267 170.12913,408.87087 50.939444,289.61504 170.13858,170.41591 C 235.69574,104.85874 289.34716,51.22622 289.37551,51.22622 c 0.0283,0 53.68922,53.64197 119.24638,119.19913 z"
     style="fill:#ff0000;stroke:none" />
  <path
     d="m 361.90625,151.71875 c -21.97671,41.97446 4.80086,65.66838 -24.71875,127.5 -15.66202,-12.51358 -6.58224,-59.27877 -37.6875,-60.0625 4.78696,14.36089 1.20407,19.93912 0.40625,25.125 -3.09414,20.11189 -10.27447,38.08529 3.6875,64.8125 -21.44769,-10.42044 -21.80367,-29.54028 -39.9375,-41.53125 3.59022,20.3446 -5.05551,61.59867 19.03125,101.125 -21.4634,-2.11113 -28.5816,-10.36205 -51.8125,-32.625 24.24474,125.59567 42.28191,129.12387 131.1875,136.25 -6.69856,-0.78528 -51.49428,-7.93919 -67.71875,-59.5625 -0.92088,-12.78254 -1.42642,11.23343 41.65625,12.03125 -27.27922,-43.20279 -19.84756,-35.02469 -16.65625,-60.15625 11.29265,17.19944 1.3994,18.70351 33.3125,31.46875 -10.11823,-32.14696 15.61604,-54.14369 10.03125,-90.84375 7.05157,16.11791 32.13424,13.57949 30.9375,90.96875 20.76835,-23.17028 23.2459,-7.1331 33.21875,-33.0625 0.57762,14.43551 6.91343,32.40954 -21.3125,62 7.18045,1.99457 19.20322,3.53915 38.75,-9.625 -19.03226,21.56989 -1.83119,22.07856 -49.96875,57.375 60.63489,0.79782 100.45931,-37.37162 99.03125,-121.25 -1.59565,7.18045 -3.38283,21.5182 -36.09375,25.90625 20.48991,-20.36032 31.16796,-60.8975 14.8125,-94.40625 -5.75854,5.35573 -14.70866,30.25705 -36.25,37.4375 10.92635,-17.92607 8.46875,-41.125 8.46875,-41.125 0,0 2.78752,-31.33249 -15.71875,-55.53125 -5.18588,37.8968 -4.75267,56.9538 -28.6875,62.9375 3.8518,-22.36642 4.56116,-32.78203 -7.40625,-58.3125 -12.49935,-26.66526 -26.97228,-52.90893 -30.5625,-76.84375 z m -100.125,342.25 0,10.96875 0,11 106.71875,0 106.71875,0 -0.0312,-10.96875 -0.0312,-10.9375 L 368.5,494 261.78125,493.96875 z"
     transform="scale(0.8,0.8)"
     style="fill:#000000;stroke:none" />
</svg>
